<svg width="206" height="155" viewBox="0 0 206 155" fill="none" xmlns="http://www.w3.org/2000/svg">
<line y1="-2.5" x2="126.782" y2="-2.5" transform="matrix(0.948925 -0.315502 0.406503 0.91365 43.9583 72)" stroke="#ADADAD" stroke-opacity="0.2" stroke-width="5"/>
<line y1="-2.5" x2="106.68" y2="-2.5" transform="matrix(0.549559 -0.835455 0.897436 0.441145 115.081 127.126)" stroke="#ADADAD" stroke-opacity="0.2" stroke-width="5"/>
<ellipse cx="27.7631" cy="72" rx="27.7631" ry="24" fill="#00B833" fill-opacity="0.9"/>
<path d="M55.0262 72C55.0262 84.9128 42.891 95.5 27.7631 95.5C12.6353 95.5 0.5 84.9128 0.5 72C0.5 59.0872 12.6353 48.5 27.7631 48.5C42.891 48.5 55.0262 59.0872 55.0262 72Z" stroke="#00B833" stroke-opacity="0.9"/>
<ellipse cx="178.147" cy="24" rx="27.7631" ry="24" fill="#00B833" fill-opacity="0.9"/>
<ellipse cx="27.6758" cy="24.1006" rx="27.6758" ry="24.1006" transform="matrix(0.990616 0.136675 -0.18156 0.98338 92.0408 99.6436)" fill="#00B833" fill-opacity="0.9"/>
</svg>
