<svg width="150" height="71" viewBox="0 0 282 71" fill="none" xmlns="http://www.w3.org/2000/svg">
<rect x="1" y="1" width="280" height="69" rx="14" stroke="white" stroke-width="2"/>
<path d="M103.497 29.9091C103.356 28.4922 102.731 27.3653 101.62 26.5284C100.51 25.6915 99.1138 25.2731 97.4318 25.2731C96.2469 25.2731 95.2028 25.4761 94.2997 25.8821C93.4048 26.2881 92.7005 26.8516 92.1867 27.5724C91.6813 28.285 91.4286 29.0971 91.4286 30.0085C91.4286 30.6797 91.5736 31.268 91.8636 31.7734C92.1536 32.2789 92.543 32.7139 93.0319 33.0785C93.5291 33.4348 94.076 33.7414 94.6725 33.9982C95.2774 34.2551 95.8864 34.4705 96.4996 34.6445L99.1843 35.4151C99.9963 35.6388 100.808 35.9247 101.62 36.2727C102.432 36.6207 103.174 37.0599 103.845 37.5902C104.525 38.1122 105.067 38.7544 105.473 39.5167C105.888 40.2707 106.095 41.178 106.095 42.2386C106.095 43.5975 105.743 44.8197 105.038 45.9052C104.334 46.9906 103.323 47.8524 102.006 48.4904C100.688 49.1201 99.1097 49.435 97.2702 49.435C95.5384 49.435 94.0345 49.1491 92.7585 48.5774C91.4824 47.9974 90.4798 47.1978 89.7507 46.1786C89.0215 45.1594 88.6113 43.9787 88.5202 42.6364H90.9066C90.9894 43.639 91.3209 44.4883 91.9009 45.1843C92.4809 45.8803 93.2349 46.4106 94.163 46.7752C95.091 47.1315 96.1267 47.3097 97.2702 47.3097C98.538 47.3097 99.6648 47.0984 100.651 46.6758C101.645 46.2449 102.424 45.6483 102.988 44.886C103.559 44.1154 103.845 43.2205 103.845 42.2013C103.845 41.3396 103.621 40.6187 103.174 40.0387C102.727 39.4504 102.101 38.9574 101.297 38.5597C100.502 38.1619 99.5778 37.8098 98.5255 37.5032L95.4804 36.6083C93.4835 36.0117 91.934 35.1873 90.832 34.1349C89.73 33.0826 89.1789 31.7403 89.1789 30.108C89.1789 28.7408 89.5435 27.5393 90.2727 26.5036C91.0101 25.4595 92.0045 24.6475 93.2556 24.0675C94.5151 23.4792 95.9279 23.185 97.4939 23.185C99.0765 23.185 100.477 23.475 101.695 24.055C102.913 24.6351 103.878 25.4347 104.591 26.4538C105.312 27.4647 105.697 28.6165 105.747 29.9091H103.497ZM116.56 49.435C115.408 49.435 114.356 49.2113 113.403 48.7638C112.45 48.3081 111.692 47.6535 111.129 46.8001C110.565 45.9383 110.283 44.8943 110.283 43.668C110.283 42.7234 110.461 41.9279 110.818 41.2816C111.174 40.6353 111.68 40.105 112.334 39.6907C112.989 39.2764 113.763 38.9491 114.658 38.7088C115.553 38.4685 116.539 38.2821 117.616 38.1495C118.685 38.0169 119.588 37.9009 120.326 37.8015C121.072 37.7021 121.639 37.5446 122.029 37.3292C122.418 37.1138 122.613 36.7657 122.613 36.2852V35.8377C122.613 34.5368 122.223 33.5135 121.445 32.7678C120.674 32.0137 119.564 31.6367 118.114 31.6367C116.738 31.6367 115.615 31.9392 114.745 32.544C113.884 33.1489 113.279 33.8615 112.931 34.6818L110.83 33.9237C111.261 32.8796 111.858 32.0469 112.62 31.4254C113.382 30.7957 114.236 30.3441 115.18 30.0707C116.125 29.7889 117.082 29.6481 118.051 29.6481C118.781 29.6481 119.539 29.7434 120.326 29.9339C121.121 30.1245 121.859 30.456 122.538 30.9283C123.218 31.3923 123.769 32.0427 124.191 32.8796C124.614 33.7082 124.825 34.7605 124.825 36.0366V49H122.613V45.9798H122.476C122.211 46.5432 121.817 47.0901 121.295 47.6204C120.773 48.1507 120.119 48.5857 119.332 48.9254C118.544 49.2652 117.621 49.435 116.56 49.435ZM116.858 47.4091C118.035 47.4091 119.054 47.1481 119.916 46.6261C120.778 46.104 121.44 45.4122 121.904 44.5504C122.377 43.6804 122.613 42.7234 122.613 41.6793V38.9201C122.447 39.0775 122.17 39.2184 121.78 39.3427C121.399 39.467 120.956 39.5788 120.45 39.6783C119.953 39.7694 119.456 39.8481 118.959 39.9144C118.462 39.9807 118.014 40.0387 117.616 40.0884C116.539 40.221 115.62 40.4281 114.857 40.7099C114.095 40.9916 113.511 41.381 113.105 41.8782C112.699 42.3671 112.496 42.9968 112.496 43.7674C112.496 44.9274 112.91 45.8265 113.739 46.4645C114.567 47.0942 115.607 47.4091 116.858 47.4091ZM123.446 24.1048V26.0312H113.043V24.1048H123.446ZM132.724 41.7912L132.699 38.8952H133.196L142.145 29.9091H144.942L136.105 38.7585L135.906 38.7958L132.724 41.7912ZM130.71 49V23.5455H132.923V49H130.71ZM142.605 49L134.849 39.1935L136.44 37.6648L145.439 49H142.605ZM154.431 49.435C153.279 49.435 152.227 49.2113 151.274 48.7638C150.321 48.3081 149.563 47.6535 149 46.8001C148.436 45.9383 148.154 44.8943 148.154 43.668C148.154 42.7234 148.333 41.9279 148.689 41.2816C149.045 40.6353 149.551 40.105 150.205 39.6907C150.86 39.2764 151.635 38.9491 152.529 38.7088C153.424 38.4685 154.41 38.2821 155.488 38.1495C156.556 38.0169 157.46 37.9009 158.197 37.8015C158.943 37.7021 159.51 37.5446 159.9 37.3292C160.289 37.1138 160.484 36.7657 160.484 36.2852V35.8377C160.484 34.5368 160.095 33.5135 159.316 32.7678C158.545 32.0137 157.435 31.6367 155.985 31.6367C154.609 31.6367 153.486 31.9392 152.616 32.544C151.755 33.1489 151.15 33.8615 150.802 34.6818L148.701 33.9237C149.132 32.8796 149.729 32.0469 150.491 31.4254C151.253 30.7957 152.107 30.3441 153.051 30.0707C153.996 29.7889 154.953 29.6481 155.923 29.6481C156.652 29.6481 157.41 29.7434 158.197 29.9339C158.992 30.1245 159.73 30.456 160.409 30.9283C161.089 31.3923 161.64 32.0427 162.062 32.8796C162.485 33.7082 162.696 34.7605 162.696 36.0366V49H160.484V45.9798H160.347C160.082 46.5432 159.689 47.0901 159.167 47.6204C158.644 48.1507 157.99 48.5857 157.203 48.9254C156.416 49.2652 155.492 49.435 154.431 49.435ZM154.729 47.4091C155.906 47.4091 156.925 47.1481 157.787 46.6261C158.649 46.104 159.312 45.4122 159.776 44.5504C160.248 43.6804 160.484 42.7234 160.484 41.6793V38.9201C160.318 39.0775 160.041 39.2184 159.651 39.3427C159.27 39.467 158.827 39.5788 158.321 39.6783C157.824 39.7694 157.327 39.8481 156.83 39.9144C156.333 39.9807 155.885 40.0387 155.488 40.0884C154.41 40.221 153.491 40.4281 152.728 40.7099C151.966 40.9916 151.382 41.381 150.976 41.8782C150.57 42.3671 150.367 42.9968 150.367 43.7674C150.367 44.9274 150.781 45.8265 151.61 46.4645C152.438 47.0942 153.478 47.4091 154.729 47.4091ZM168.581 49V29.9091H170.732V32.8423H170.931C171.312 31.8563 171.946 31.0816 172.832 30.5181C173.727 29.9464 174.8 29.6605 176.051 29.6605C177.369 29.6605 178.45 29.9712 179.295 30.5927C180.149 31.2058 180.787 32.051 181.209 33.1282H181.371C181.802 32.0676 182.502 31.2266 183.471 30.6051C184.449 29.9754 185.634 29.6605 187.026 29.6605C188.799 29.6605 190.2 30.2198 191.227 31.3384C192.255 32.4487 192.768 34.0728 192.768 36.2106V49H190.556V36.2106C190.556 34.7025 190.171 33.5715 189.4 32.8175C188.629 32.0634 187.614 31.6864 186.355 31.6864C184.897 31.6864 183.774 32.1339 182.987 33.0288C182.199 33.9237 181.806 35.0588 181.806 36.4343V49H179.544V36.0117C179.544 34.7191 179.183 33.6751 178.462 32.8796C177.742 32.0842 176.727 31.6864 175.417 31.6864C174.539 31.6864 173.748 31.9019 173.043 32.3327C172.347 32.7636 171.796 33.3643 171.39 34.1349C170.993 34.8973 170.794 35.7756 170.794 36.7699V49H168.581Z" fill="white"/>
</svg>
